<?xml version="1.0" encoding="UTF-8" standalone="no"?>
<!-- Created with Inkscape (http://www.inkscape.org/) -->

<svg
   xmlns:dc="http://purl.org/dc/elements/1.1/"
   xmlns:cc="http://creativecommons.org/ns#"
   xmlns:rdf="http://www.w3.org/1999/02/22-rdf-syntax-ns#"
   xmlns:svg="http://www.w3.org/2000/svg"
   xmlns="http://www.w3.org/2000/svg"
   xmlns:sodipodi="http://sodipodi.sourceforge.net/DTD/sodipodi-0.dtd"
   xmlns:inkscape="http://www.inkscape.org/namespaces/inkscape"
   width="48pt"
   height="48pt"
   viewBox="0 0 16.933334 16.933333"
   version="1.1"
   id="svg979"
   inkscape:version="0.92.4 (5da689c313, 2019-01-14)"
   sodipodi:docname="26 - Time Management.svg"
   inkscape:export-filename="E:\TR Design Studio Creative\Project Design\TR Creative Design\Icon Design\Project Hiring\Icon Icons\003 - Business And Finance\Send\4 - Filled Line\25 - Business Schedule.png"
   inkscape:export-xdpi="768"
   inkscape:export-ydpi="768">
  <defs
     id="defs973" />
  <sodipodi:namedview
     id="base"
     pagecolor="#ffffff"
     bordercolor="#666666"
     borderopacity="1.0"
     inkscape:pageopacity="0.0"
     inkscape:pageshadow="2"
     inkscape:zoom="4.2734375"
     inkscape:cx="67.68087"
     inkscape:cy="22.661268"
     inkscape:document-units="pt"
     inkscape:current-layer="layer1"
     showgrid="false"
     units="pt"
     inkscape:window-width="1366"
     inkscape:window-height="716"
     inkscape:window-x="-8"
     inkscape:window-y="-8"
     inkscape:window-maximized="1"
     inkscape:snap-bbox="true"
     inkscape:bbox-nodes="true"
     inkscape:snap-nodes="false"
     showguides="false">
    <inkscape:grid
       type="xygrid"
       id="grid1526" />
    <sodipodi:guide
       position="0.97013909,15.963209"
       orientation="56.666615,0"
       id="guide1528"
       inkscape:locked="false" />
    <sodipodi:guide
       position="0.97013909,0.97016731"
       orientation="0,56.666667"
       id="guide1530"
       inkscape:locked="false" />
    <sodipodi:guide
       position="15.963195,0.97016731"
       orientation="-56.666615,0"
       id="guide1532"
       inkscape:locked="false" />
    <sodipodi:guide
       position="15.963195,15.963209"
       orientation="0,-56.666667"
       id="guide1534"
       inkscape:locked="false" />
  </sodipodi:namedview>
  <metadata
     id="metadata976">
    <rdf:RDF>
      <cc:Work
         rdf:about="">
        <dc:format>image/svg+xml</dc:format>
        <dc:type
           rdf:resource="http://purl.org/dc/dcmitype/StillImage" />
        <dc:title></dc:title>
      </cc:Work>
    </rdf:RDF>
  </metadata>
  <g
     inkscape:label="Layer 1"
     inkscape:groupmode="layer"
     id="layer1"
     transform="translate(0,-280.06668)">
    <g
       id="g1765"
       transform="matrix(1.2316162,0,0,1.2316162,-4.4964504,-69.783828)"
       style="stroke-width:0.81194127">
      <path
         inkscape:connector-curvature="0"
         id="path1657"
         d="m 9.4682282,286.17157 a 0.26461046,0.26461046 0 0 0 -0.265625,0.26368 v 1.12695 a 0.26461046,0.26461046 0 0 0 0.265625,0.26562 h 2.1152338 a 0.26461046,0.26461046 0 0 0 0.265625,-0.26562 v -1.12695 a 0.26461046,0.26461046 0 0 0 -0.265625,-0.26368 z"
         style="color:#000000;font-style:normal;font-variant:normal;font-weight:normal;font-stretch:normal;font-size:medium;line-height:normal;font-family:sans-serif;font-variant-ligatures:normal;font-variant-position:normal;font-variant-caps:normal;font-variant-numeric:normal;font-variant-alternates:normal;font-feature-settings:normal;text-indent:0;text-align:start;text-decoration:none;text-decoration-line:none;text-decoration-style:solid;text-decoration-color:#000000;letter-spacing:normal;word-spacing:normal;text-transform:none;writing-mode:lr-tb;direction:ltr;text-orientation:mixed;dominant-baseline:auto;baseline-shift:baseline;text-anchor:start;white-space:normal;shape-padding:0;clip-rule:nonzero;display:inline;overflow:visible;visibility:visible;opacity:1;isolation:auto;mix-blend-mode:normal;color-interpolation:sRGB;color-interpolation-filters:linearRGB;solid-color:#000000;solid-opacity:1;vector-effect:none;fill:#444444;fill-opacity:1;fill-rule:nonzero;stroke:none;stroke-width:0.42965335;stroke-linecap:round;stroke-linejoin:round;stroke-miterlimit:1.5;stroke-dasharray:none;stroke-dashoffset:0;stroke-opacity:1;paint-order:markers fill stroke;color-rendering:auto;image-rendering:auto;shape-rendering:auto;text-rendering:auto;enable-background:accumulate" />
      <path
         inkscape:connector-curvature="0"
         id="path1615"
         d="m 10.524869,287.23017 c -2.3666678,0 -4.3447129,1.68315 -4.7968759,3.91992 a 0.26460979,0.26460979 0 0 0 0.02734,0.17969 l 2.9023441,5.25586 a 0.26460979,0.26460979 0 0 0 0.1386721,0.11914 c 0.5379609,0.20327 1.1201709,0.31445 1.7285157,0.31445 2.700181,0 4.896482,-2.19435 4.896484,-4.89453 1e-6,-0.65127 -0.130539,-1.27186 -0.361328,-1.83984 a 0.26460979,0.26460979 0 0 0 -0.05274,-0.084 l -2.30664,-2.4375 a 0.26460979,0.26460979 0 0 0 -0.07813,-0.0566 c -0.634982,-0.30184 -1.346259,-0.47656 -2.097656,-0.47656 z"
         style="color:#000000;font-style:normal;font-variant:normal;font-weight:normal;font-stretch:normal;font-size:medium;line-height:normal;font-family:sans-serif;font-variant-ligatures:normal;font-variant-position:normal;font-variant-caps:normal;font-variant-numeric:normal;font-variant-alternates:normal;font-feature-settings:normal;text-indent:0;text-align:start;text-decoration:none;text-decoration-line:none;text-decoration-style:solid;text-decoration-color:#000000;letter-spacing:normal;word-spacing:normal;text-transform:none;writing-mode:lr-tb;direction:ltr;text-orientation:mixed;dominant-baseline:auto;baseline-shift:baseline;text-anchor:start;white-space:normal;shape-padding:0;clip-rule:nonzero;display:inline;overflow:visible;visibility:visible;opacity:1;isolation:auto;mix-blend-mode:normal;color-interpolation:sRGB;color-interpolation-filters:linearRGB;solid-color:#000000;solid-opacity:1;vector-effect:none;fill:#039be5;fill-opacity:1;fill-rule:nonzero;stroke:none;stroke-width:0.42965221;stroke-linecap:round;stroke-linejoin:round;stroke-miterlimit:1.5;stroke-dasharray:none;stroke-dashoffset:0;stroke-opacity:1;paint-order:markers fill stroke;color-rendering:auto;image-rendering:auto;shape-rendering:auto;text-rendering:auto;enable-background:accumulate" />
      <path
         inkscape:connector-curvature="0"
         id="path1725"
         d="m 10.524869,287.23016 c -1.6241887,0 -3.0647727,0.79295 -3.9553138,2.01331 0.8119109,-0.5983 1.8123571,-0.95498 2.896981,-0.95498 0.7513968,0 1.4625638,0.17462 2.0975458,0.47646 a 0.26460979,0.26460979 0 0 1 0.07855,0.0568 l 2.30632,2.43758 a 0.26460979,0.26460979 0 0 1 0.05271,0.0837 c 0.230789,0.56798 0.361219,1.18893 0.361218,1.8402 -1e-6,1.07953 -0.355336,2.07465 -0.949296,2.88458 1.214509,-0.89131 2.007628,-2.32379 2.007629,-3.94291 1e-6,-0.65127 -0.130429,-1.27222 -0.361218,-1.8402 a 0.26460979,0.26460979 0 0 0 -0.05271,-0.0837 l -2.306319,-2.43758 a 0.26460979,0.26460979 0 0 0 -0.07855,-0.0568 c -0.634982,-0.30184 -1.34615,-0.47645 -2.097547,-0.47645 z"
         style="color:#000000;font-style:normal;font-variant:normal;font-weight:normal;font-stretch:normal;font-size:medium;line-height:normal;font-family:sans-serif;font-variant-ligatures:normal;font-variant-position:normal;font-variant-caps:normal;font-variant-numeric:normal;font-variant-alternates:normal;font-feature-settings:normal;text-indent:0;text-align:start;text-decoration:none;text-decoration-line:none;text-decoration-style:solid;text-decoration-color:#000000;letter-spacing:normal;word-spacing:normal;text-transform:none;writing-mode:lr-tb;direction:ltr;text-orientation:mixed;dominant-baseline:auto;baseline-shift:baseline;text-anchor:start;white-space:normal;shape-padding:0;clip-rule:nonzero;display:inline;overflow:visible;visibility:visible;opacity:1;isolation:auto;mix-blend-mode:normal;color-interpolation:sRGB;color-interpolation-filters:linearRGB;solid-color:#000000;solid-opacity:1;vector-effect:none;fill:#0377af;fill-opacity:1;fill-rule:nonzero;stroke:none;stroke-width:0.42965221;stroke-linecap:round;stroke-linejoin:round;stroke-miterlimit:1.5;stroke-dasharray:none;stroke-dashoffset:0;stroke-opacity:1;paint-order:markers fill stroke;color-rendering:auto;image-rendering:auto;shape-rendering:auto;text-rendering:auto;enable-background:accumulate" />
      <path
         inkscape:connector-curvature="0"
         id="path1687"
         d="m 6.1917024,290.55495 c -0.1160233,0 -0.2248096,0.0279 -0.3240114,0.0739 -0.047816,0.14889 -0.089434,0.30053 -0.1229897,0.45526 h 2.5641844 c 0.435162,0 0.7927165,0.35962 0.7927165,0.79479 v 4.49843 c 0,0.0791 -0.015216,0.15401 -0.037207,0.22634 0.325542,-0.0988 0.5663737,-0.39939 0.5663737,-0.7555 v -4.49844 c 0,-0.43517 -0.3575545,-0.79478 -0.7927165,-0.79478 z"
         style="color:#000000;font-style:normal;font-variant:normal;font-weight:normal;font-stretch:normal;font-size:medium;line-height:normal;font-family:sans-serif;font-variant-ligatures:normal;font-variant-position:normal;font-variant-caps:normal;font-variant-numeric:normal;font-variant-alternates:normal;font-feature-settings:normal;text-indent:0;text-align:start;text-decoration:none;text-decoration-line:none;text-decoration-style:solid;text-decoration-color:#000000;letter-spacing:normal;word-spacing:normal;text-transform:none;writing-mode:lr-tb;direction:ltr;text-orientation:mixed;dominant-baseline:auto;baseline-shift:baseline;text-anchor:start;white-space:normal;shape-padding:0;clip-rule:nonzero;display:inline;overflow:visible;visibility:visible;opacity:1;isolation:auto;mix-blend-mode:normal;color-interpolation:sRGB;color-interpolation-filters:linearRGB;solid-color:#000000;solid-opacity:1;vector-effect:none;fill:#0377af;fill-opacity:1;fill-rule:nonzero;stroke:none;stroke-width:0.42965251;stroke-linecap:round;stroke-linejoin:round;stroke-miterlimit:1.5;stroke-dasharray:none;stroke-dashoffset:0;stroke-opacity:1;paint-order:markers fill stroke;color-rendering:auto;image-rendering:auto;shape-rendering:auto;text-rendering:auto;enable-background:accumulate" />
      <path
         inkscape:connector-curvature="0"
         id="path1595"
         d="m 5.7631501,290.93329 c -0.435162,0 -0.792969,0.35976 -0.792969,0.79493 v 3.70312 a 0.26460995,0.26460995 0 0 0 0.01758,0.0996 l 0.529297,1.32227 a 0.26460995,0.26460995 0 0 0 0.246094,0.16601 h 2.646484 c 0.435156,0 0.7929692,-0.35781 0.7929692,-0.79297 v -4.49804 c 0,-0.43517 -0.3578071,-0.79493 -0.7929692,-0.79493 z"
         style="color:#000000;font-style:normal;font-variant:normal;font-weight:normal;font-stretch:normal;font-size:medium;line-height:normal;font-family:sans-serif;font-variant-ligatures:normal;font-variant-position:normal;font-variant-caps:normal;font-variant-numeric:normal;font-variant-alternates:normal;font-feature-settings:normal;text-indent:0;text-align:start;text-decoration:none;text-decoration-line:none;text-decoration-style:solid;text-decoration-color:#000000;letter-spacing:normal;word-spacing:normal;text-transform:none;writing-mode:lr-tb;direction:ltr;text-orientation:mixed;dominant-baseline:auto;baseline-shift:baseline;text-anchor:start;white-space:normal;shape-padding:0;clip-rule:nonzero;display:inline;overflow:visible;visibility:visible;opacity:1;isolation:auto;mix-blend-mode:normal;color-interpolation:sRGB;color-interpolation-filters:linearRGB;solid-color:#000000;solid-opacity:1;vector-effect:none;fill:#efebe9;fill-opacity:1;fill-rule:nonzero;stroke:none;stroke-width:0.42965251;stroke-linecap:round;stroke-linejoin:round;stroke-miterlimit:1.5;stroke-dasharray:none;stroke-dashoffset:0;stroke-opacity:1;paint-order:markers fill stroke;color-rendering:auto;image-rendering:auto;shape-rendering:auto;text-rendering:auto;enable-background:accumulate" />
      <path
         sodipodi:nodetypes="ccccssccc"
         inkscape:connector-curvature="0"
         id="path1602"
         d="m 7.8803371,295.16767 h -3.175781 c -0.0085,-4.2e-4 -0.01693,-4.2e-4 -0.02539,0 -0.135412,0.0135 -0.238473,0.12758 -0.238281,0.26367 v 0.79492 c 0,0.43516 0.357807,0.79297 0.792969,0.79297 h 3.1757812 l -0.520873,-0.71506 z"
         style="color:#000000;font-style:normal;font-variant:normal;font-weight:normal;font-stretch:normal;font-size:medium;line-height:normal;font-family:sans-serif;font-variant-ligatures:normal;font-variant-position:normal;font-variant-caps:normal;font-variant-numeric:normal;font-variant-alternates:normal;font-feature-settings:normal;text-indent:0;text-align:start;text-decoration:none;text-decoration-line:none;text-decoration-style:solid;text-decoration-color:#000000;letter-spacing:normal;word-spacing:normal;text-transform:none;writing-mode:lr-tb;direction:ltr;text-orientation:mixed;dominant-baseline:auto;baseline-shift:baseline;text-anchor:start;white-space:normal;shape-padding:0;clip-rule:nonzero;display:inline;overflow:visible;visibility:visible;opacity:1;isolation:auto;mix-blend-mode:normal;color-interpolation:sRGB;color-interpolation-filters:linearRGB;solid-color:#000000;solid-opacity:1;vector-effect:none;fill:#b7b4b3;fill-opacity:1;fill-rule:nonzero;stroke:none;stroke-width:0.42965251;stroke-linecap:round;stroke-linejoin:round;stroke-miterlimit:1.5;stroke-dasharray:none;stroke-dashoffset:0;stroke-opacity:1;paint-order:markers fill stroke;color-rendering:auto;image-rendering:auto;shape-rendering:auto;text-rendering:auto;enable-background:accumulate" />
      <path
         inkscape:connector-curvature="0"
         id="path1665"
         d="m 9.2026032,284.84931 c -0.288585,0 -0.5292971,0.23876 -0.5292971,0.52734 v 0.79492 c 0,0.28859 0.2407121,0.5293 0.5292971,0.5293 h 2.6464838 c 0.288585,0 0.529297,-0.24071 0.529297,-0.5293 v -0.79492 c 0,-0.28858 -0.240712,-0.52734 -0.529297,-0.52734 z"
         style="color:#000000;font-style:normal;font-variant:normal;font-weight:normal;font-stretch:normal;font-size:medium;line-height:normal;font-family:sans-serif;font-variant-ligatures:normal;font-variant-position:normal;font-variant-caps:normal;font-variant-numeric:normal;font-variant-alternates:normal;font-feature-settings:normal;text-indent:0;text-align:start;text-decoration:none;text-decoration-line:none;text-decoration-style:solid;text-decoration-color:#000000;letter-spacing:normal;word-spacing:normal;text-transform:none;writing-mode:lr-tb;direction:ltr;text-orientation:mixed;dominant-baseline:auto;baseline-shift:baseline;text-anchor:start;white-space:normal;shape-padding:0;clip-rule:nonzero;display:inline;overflow:visible;visibility:visible;opacity:1;isolation:auto;mix-blend-mode:normal;color-interpolation:sRGB;color-interpolation-filters:linearRGB;solid-color:#000000;solid-opacity:1;vector-effect:none;fill:#efebe9;fill-opacity:1;fill-rule:nonzero;stroke:none;stroke-width:0.42965335;stroke-linecap:round;stroke-linejoin:round;stroke-miterlimit:1.5;stroke-dasharray:none;stroke-dashoffset:0;stroke-opacity:1;paint-order:markers fill stroke;color-rendering:auto;image-rendering:auto;shape-rendering:auto;text-rendering:auto;enable-background:accumulate" />
      <path
         inkscape:connector-curvature="0"
         id="path1742"
         d="m 9.2022201,284.84937 c -0.288585,0 -0.5291659,0.23852 -0.5291659,0.5271 v 0.002 H 11.31992 c 0.288586,0 0.529167,0.23852 0.529167,0.5271 v 0.7953 c 0.288585,0 0.529167,-0.24057 0.529167,-0.52916 v -0.79531 c 0,-0.28857 -0.240582,-0.52709 -0.529167,-0.52709 z"
         style="color:#000000;font-style:normal;font-variant:normal;font-weight:normal;font-stretch:normal;font-size:medium;line-height:normal;font-family:sans-serif;font-variant-ligatures:normal;font-variant-position:normal;font-variant-caps:normal;font-variant-numeric:normal;font-variant-alternates:normal;font-feature-settings:normal;text-indent:0;text-align:start;text-decoration:none;text-decoration-line:none;text-decoration-style:solid;text-decoration-color:#000000;letter-spacing:normal;word-spacing:normal;text-transform:none;writing-mode:lr-tb;direction:ltr;text-orientation:mixed;dominant-baseline:auto;baseline-shift:baseline;text-anchor:start;white-space:normal;shape-padding:0;clip-rule:nonzero;display:inline;overflow:visible;visibility:visible;opacity:1;isolation:auto;mix-blend-mode:normal;color-interpolation:sRGB;color-interpolation-filters:linearRGB;solid-color:#000000;solid-opacity:1;vector-effect:none;fill:#c5c3c2;fill-opacity:1;fill-rule:nonzero;stroke:none;stroke-width:0.42965335;stroke-linecap:round;stroke-linejoin:round;stroke-miterlimit:1.5;stroke-dasharray:none;stroke-dashoffset:0;stroke-opacity:1;paint-order:markers fill stroke;color-rendering:auto;image-rendering:auto;shape-rendering:auto;text-rendering:auto;enable-background:accumulate" />
      <path
         inkscape:connector-curvature="0"
         id="path1637"
         d="m 13.921353,286.39228 c -0.233282,4.5e-4 -0.436415,0.17059 -0.476563,0.40039 l -0.06445,0.36328 c -0.01111,0.004 -0.02218,0.009 -0.0332,0.0137 l -0.304687,-0.21094 c -0.191036,-0.13155 -0.453157,-0.10735 -0.617188,0.0566 l -0.236334,0.23439 c -0.163982,0.16403 -0.188178,0.42615 -0.05664,0.61719 a 0.26460995,0.26460995 0 0 0 0,0.002 l 0.210938,0.30469 c -0.0044,0.0105 -0.0095,0.0207 -0.01367,0.0312 l -0.361328,0.0664 c -0.229809,0.0402 -0.399943,0.24328 -0.400391,0.47657 v 0.33398 c 4.5e-4,0.23328 0.17059,0.43641 0.400391,0.47656 l 0.363281,0.0664 c 0.0041,0.0103 0.0074,0.021 0.01172,0.0312 l -0.210938,0.30469 c -0.131549,0.19103 -0.107353,0.45315 0.05664,0.61718 l 0.236328,0.23633 c 0.164031,0.164 0.426152,0.18819 0.617188,0.0566 l 0.304688,-0.21289 c 0.01104,0.005 0.02209,0.009 0.0332,0.0137 l 0.06445,0.36329 c 0.04015,0.2298 0.243281,0.40188 0.476563,0.40234 h 0.333984 a 0.26460995,0.26460995 0 0 0 0.002,0 c 0.233282,-4.5e-4 0.434461,-0.17254 0.474609,-0.40234 l 0.06641,-0.36133 c 0.01112,-0.004 0.02217,-0.009 0.0332,-0.0137 l 0.302734,0.21093 c 0.190273,0.13241 0.452323,0.11023 0.617188,-0.0527 a 0.26460995,0.26460995 0 0 0 0,-0.002 l 0.238281,-0.23633 c 0.16427,-0.16457 0.189519,-0.4281 0.05664,-0.61914 l -0.210938,-0.30469 c 0.0043,-0.0102 0.0076,-0.021 0.01172,-0.0312 l 0.363282,-0.0664 c 0.229792,-0.0401 0.399922,-0.24329 0.40039,-0.47656 v -0.33398 c -4.49e-4,-0.23329 -0.170582,-0.43642 -0.40039,-0.47657 l -0.363282,-0.0664 c -0.0041,-0.0103 -0.0074,-0.021 -0.01172,-0.0312 l 0.210938,-0.30469 c 0.133281,-0.19164 0.109015,-0.45663 -0.05664,-0.62109 l -0.238281,-0.23438 a 0.26460995,0.26460995 0 0 0 0,-0.002 c -0.164876,-0.16296 -0.426926,-0.18515 -0.617199,-0.0527 l -0.302734,0.21094 c -0.01103,-0.005 -0.02207,-0.009 -0.0332,-0.0137 l -0.06641,-0.36328 c -0.04015,-0.2298 -0.241327,-0.39994 -0.474609,-0.40039 a 0.26460995,0.26460995 0 0 0 -0.002,0 z"
         style="color:#000000;font-style:normal;font-variant:normal;font-weight:normal;font-stretch:normal;font-size:medium;line-height:normal;font-family:sans-serif;font-variant-ligatures:normal;font-variant-position:normal;font-variant-caps:normal;font-variant-numeric:normal;font-variant-alternates:normal;font-feature-settings:normal;text-indent:0;text-align:start;text-decoration:none;text-decoration-line:none;text-decoration-style:solid;text-decoration-color:#000000;letter-spacing:normal;word-spacing:normal;text-transform:none;writing-mode:lr-tb;direction:ltr;text-orientation:mixed;dominant-baseline:auto;baseline-shift:baseline;text-anchor:start;white-space:normal;shape-padding:0;clip-rule:nonzero;display:inline;overflow:visible;visibility:visible;opacity:1;isolation:auto;mix-blend-mode:normal;color-interpolation:sRGB;color-interpolation-filters:linearRGB;solid-color:#000000;solid-opacity:1;vector-effect:none;fill:#444444;fill-opacity:1;fill-rule:nonzero;stroke:none;stroke-width:0.42965251;stroke-linecap:round;stroke-linejoin:round;stroke-miterlimit:1.5;stroke-dasharray:none;stroke-dashoffset:0;stroke-opacity:1;paint-order:markers fill stroke;color-rendering:auto;image-rendering:auto;shape-rendering:auto;text-rendering:auto;enable-background:accumulate" />
      <path
         inkscape:connector-curvature="0"
         id="path1649"
         d="m 14.089322,287.92548 c -0.54342,0 -0.988282,0.44486 -0.988282,0.98828 0,0.54342 0.444862,0.99024 0.988282,0.99024 0.543419,0 0.990234,-0.44682 0.990234,-0.99024 0,-0.54342 -0.446815,-0.98828 -0.990234,-0.98828 z"
         style="color:#000000;font-style:normal;font-variant:normal;font-weight:normal;font-stretch:normal;font-size:medium;line-height:normal;font-family:sans-serif;font-variant-ligatures:normal;font-variant-position:normal;font-variant-caps:normal;font-variant-numeric:normal;font-variant-alternates:normal;font-feature-settings:normal;text-indent:0;text-align:start;text-decoration:none;text-decoration-line:none;text-decoration-style:solid;text-decoration-color:#000000;letter-spacing:normal;word-spacing:normal;text-transform:none;writing-mode:lr-tb;direction:ltr;text-orientation:mixed;dominant-baseline:auto;baseline-shift:baseline;text-anchor:start;white-space:normal;shape-padding:0;clip-rule:nonzero;display:inline;overflow:visible;visibility:visible;opacity:1;isolation:auto;mix-blend-mode:normal;color-interpolation:sRGB;color-interpolation-filters:linearRGB;solid-color:#000000;solid-opacity:1;vector-effect:none;fill:#efebe9;fill-opacity:1;fill-rule:nonzero;stroke:none;stroke-width:0.42965415;stroke-linecap:round;stroke-linejoin:round;stroke-miterlimit:1.5;stroke-dasharray:none;stroke-dashoffset:0;stroke-opacity:1;paint-order:markers fill stroke;color-rendering:auto;image-rendering:auto;shape-rendering:auto;text-rendering:auto;enable-background:accumulate" />
      <circle
         style="fill:#efebe9;fill-opacity:1;stroke:#efebe9;stroke-width:0.42965168;stroke-linecap:round;stroke-linejoin:round;stroke-miterlimit:1.5;stroke-opacity:1;paint-order:markers fill stroke"
         id="circle2171"
         cx="10.5256"
         cy="292.12445"
         r="0.66144007" />
      <path
         sodipodi:nodetypes="cccccccssccsscccsscccsccccscccccccccccccccccccccccccccccccccccccccccccccccccccccccccccccccccccccccccccccccccccccccccccccccccccccccccccccccccccccccscccccccssssssssssccccccssccccccccccscccccccccccssccccccccsssccccccccccccccssccccssccccccccccccccccsccsc"
         inkscape:connector-curvature="0"
         id="rect2188"
         d="m 13.042964,286.95983 c 3e-6,-7.9e-4 3e-6,-0.001 0,-0.002 -0.191036,-0.13147 -0.453502,-0.10765 -0.617533,0.0563 l -0.236161,0.23668 c -0.06502,0.065 -0.107053,0.14565 -0.127124,0.23099 -0.07029,-0.0235 -0.141238,-0.0458 -0.212907,-0.0661 v -0.71571 c 0.288584,0 0.527616,-0.24059 0.527616,-0.52917 v -0.79323 c 0,-0.28858 -0.239032,-0.52917 -0.527616,-0.52917 -0.885019,-0.006 -1.762259,3e-5 -2.6463508,3e-5 -0.288585,0 -0.529167,0.24059 -0.529167,0.52917 v 0.79323 c 0,0.28858 0.240582,0.52917 0.529167,0.52917 v 0.71262 c -1.6812962,0.47163 -2.9946861,1.81965 -3.4209801,3.52071 h -0.0186 c -0.4351611,0 -0.7947831,0.36014 -0.7947831,0.7953 v 3.43907 H 4.7049751 c -0.146321,-6.7e-4 -0.265318,0.1176 -0.265617,0.26392 v 0.79479 c 0,0.43516 0.359623,0.7927 0.794784,0.79271 h 3.173966 c 0.231475,0 0.4460431,-0.1215 0.5772262,-0.25268 0.544735,0.15178 1.0561467,0.24698 1.5358227,0.25166 2.689384,-0.0127 4.89944,-2.20142 4.899443,-4.89376 10e-7,-0.41186 -0.05743,-0.80962 -0.153996,-1.19166 0.167318,0.052 0.355973,0.012 0.485242,-0.11575 l 0.238228,-0.23616 c 0.165668,-0.16447 0.190139,-0.42951 0.05684,-0.62115 l -0.206189,-0.3204 0.370004,-0.0801 c 0.229793,-0.0402 0.400023,-0.24318 0.400492,-0.47645 v -0.3359 c -4.49e-4,-0.23329 -0.170684,-0.43631 -0.400492,-0.47646 l -0.370004,-0.0801 0.206189,-0.3204 c 0.133281,-0.19164 0.108811,-0.45668 -0.05684,-0.62115 l -0.238228,-0.23616 c -0.164865,-0.16296 -0.426744,-0.18516 -0.617017,-0.0527 l -0.319619,0.20387 -0.08294,-0.37026 c -0.04015,-0.2298 -0.243175,-0.39953 -0.476457,-0.39998 h -0.334346 c -0.233282,5.3e-4 -0.436309,0.17018 -0.476457,0.39998 l -0.08191,0.36949 z m -3.8400758,-1.58235 h 0.5291669 v 0.79324 c -0.1820839,-0.005 -0.3480948,0 -0.5291669,0 z m 1.0588498,0 h 0.529167 v 0.79324 h -0.529167 z m 1.058333,0 h 0.529167 v 0.79324 c -0.182064,-0.005 -0.348093,0 -0.529167,0 z m -1.5880159,1.32241 c 0.5290289,0.001 1.0598859,0 1.5880159,0 v 0.59634 c -0.539218,-0.0887 -1.060111,-0.0843 -1.5880159,5.3e-4 z m 2.8577059,0.8987 0.183452,-0.18396 0.388606,0.27181 c 0.08164,0.0564 0.18798,0.0624 0.275436,0.0155 0.08007,-0.043 0.165532,-0.0781 0.255798,-0.10542 0.09548,-0.0289 0.166607,-0.109 0.183968,-0.20723 l 0.08372,-0.46876 0.255799,0.002 0.08578,0.46871 c 0.01807,0.0974 0.08907,0.17661 0.183967,0.20515 0.08956,0.0272 0.172001,0.0624 0.251664,0.10542 0.08799,0.0477 0.195381,0.0417 0.277503,-0.0155 l 0.390674,-0.27182 0.183451,0.1819 -0.271301,0.39067 c -0.05703,0.082 -0.06303,0.18914 -0.0155,0.27699 0.04237,0.0793 0.07624,0.16223 0.103353,0.25218 0.02904,0.0953 0.109125,0.16618 0.207222,0.18345 l 0.468705,0.0863 v 0.25735 l -0.468705,0.0842 c -0.09863,0.0176 -0.178839,0.0894 -0.207222,0.18552 -0.02711,0.0899 -0.06095,0.17283 -0.103353,0.25218 -0.04753,0.0879 -0.04153,0.19499 0.0155,0.27699 l 0.271301,0.39067 -0.183451,0.1819 -0.390674,-0.27181 c -0.0788,-0.0543 -0.180755,-0.0618 -0.26665,-0.0196 -0.09115,0.0439 -0.18185,0.0743 -0.262517,0.10801 -0.09247,0.0534 -0.165724,0.10739 -0.183967,0.20464 l -0.08578,0.47077 h -0.255799 l -0.08372,-0.46871 c -0.01771,-0.0988 -0.08975,-0.179 -0.186035,-0.20722 -0.09057,-0.0272 -0.174315,-0.0609 -0.253731,-0.10335 -0.08746,-0.0469 -0.193794,-0.0409 -0.275436,0.0155 l -0.388607,0.27182 -0.183451,-0.18397 0.271301,-0.38861 c 0.05724,-0.0821 0.06324,-0.18951 0.0155,-0.2775 -0.04237,-0.0793 -0.07625,-0.16174 -0.103352,-0.25166 -0.02838,-0.0961 -0.108597,-0.1679 -0.207222,-0.18552 l -0.468705,-0.0842 v -0.25787 l 0.468705,-0.0858 c 0.0981,-0.0173 0.178182,-0.0882 0.207222,-0.18345 0.02711,-0.0899 0.06095,-0.17284 0.103353,-0.25218 0.04753,-0.0879 0.04153,-0.19499 -0.0155,-0.27699 -0.09021,-0.12969 -0.180761,-0.25915 -0.271301,-0.38861 z m -0.257864,0.60715 -0.363286,0.0646 c -0.229807,0.0401 -0.400045,0.24316 -0.400492,0.47645 v 0.33383 c 0,0.22973 0.183257,0.41937 0.398425,0.47702 l 0.370262,0.0827 c 0.0044,0.0111 -0.204381,0.31936 -0.204381,0.31936 -0.141383,0.24488 -0.0853,0.47698 0.05684,0.61913 l 0.236161,0.23616 c 0.164031,0.16399 0.426498,0.18844 0.617533,0.0568 0.09767,-0.0721 0.203078,-0.14278 0.304375,-0.21295 0.01106,0.005 0.02245,0.009 0.03359,0.0139 l 0.06408,0.36329 c 0.04015,0.2298 0.243173,0.39953 0.476456,0.39997 h 0.334347 c 0.233282,-5.3e-4 0.436309,-0.17017 0.476457,-0.39997 l 0.0067,-0.0362 c 0.07432,0.27688 0.121488,0.5641 0.139527,0.85989 h -0.384474 c -0.0084,-5.3e-4 -0.01689,-5.3e-4 -0.02532,0 -0.352999,0.017 -0.327678,0.54668 0.02532,0.52968 h 0.383957 c -0.132042,2.20147 -1.885669,3.95489 -4.08709,4.08709 v -0.25114 c 0.0018,-0.14938 -0.120393,-0.2706 -0.269751,-0.26769 -0.145311,0.003 -0.261132,0.12236 -0.259415,0.26769 v 0.25269 c -0.3694347,-0.0221 -0.7201288,-0.0901 -1.0588507,-0.19843 7.99e-5,-1.517 0,-3.03411 0,-4.55115 0,-0.43516 -0.3596222,-0.7953 -0.7947832,-0.7953 h -2.081509 c 0.4950991,-1.75007 2.0520881,-3.05018 3.9351599,-3.1626 v 0.25322 c -0.008,0.36069 0.537172,0.36069 0.529166,0 l 1e-6,-0.25636 c 0.548234,0.0337 1.06656,0.17264 1.543058,0.39067 z m 1.757514,-0.28113 c -0.543419,0 -0.99012,0.44671 -0.99012,0.99013 0,0.54342 0.446701,0.98805 0.99012,0.98805 0.54342,0 0.98857,-0.44463 0.98857,-0.98805 0,-0.54342 -0.44515,-0.99013 -0.98857,-0.99013 z m 0,0.52917 c 0.259412,0 0.459404,0.20155 0.459404,0.46096 0,0.25941 -0.199992,0.45888 -0.459404,0.45888 -0.259411,0 -0.460437,-0.19947 -0.460437,-0.45888 0,-0.25941 0.201026,-0.46096 0.460437,-0.46096 z m -3.568257,0.89245 c -0.06899,0.001 -0.134812,0.0291 -0.183451,0.078 l -0.26355,0.26406 c -0.07131,0.0708 -0.09633,0.17594 -0.0646,0.2713 l 0.252181,0.75241 v 0.52917 c -0.3806278,0.115 -0.6624919,0.46633 -0.6624919,0.88263 0,0.5083 0.4177479,0.9276 0.9260419,0.9276 0.153389,0 0.296391,-0.0417 0.424263,-0.10904 l 0.962732,0.96273 0.355017,0.71055 c 0.04526,0.089 0.1368,0.145 0.236678,0.14469 h 0.374654 c 0.145313,-5.3e-4 0.262969,-0.11823 0.26355,-0.26354 v -0.37518 c -1.88e-4,-0.10003 -0.05677,-0.19141 -0.146244,-0.23616 l -0.707967,-0.35295 -0.958598,-0.96015 c 0.07518,-0.13388 0.121439,-0.28545 0.121439,-0.44855 0,-0.41546 -0.28045,-0.76638 -0.659908,-0.88211 v -0.53124 l 0.250114,-0.75086 c 0.03174,-0.0954 0.0067,-0.20047 -0.0646,-0.2713 l -0.263549,-0.26402 c -0.05066,-0.051 -0.119868,-0.0791 -0.191719,-0.078 z m -4.7578489,2.11667 c 0.877386,0.004 1.7615119,0 2.6447991,0 0.1511551,0 0.265617,0.11447 0.265617,0.26562 v 4.49792 c 0,0.11336 -0.06423,0.20517 -0.160197,0.24391 -0.03199,0.0129 -0.06763,0.0196 -0.10542,0.0196 -0.1511541,0 -0.2635491,-0.1124 -0.2635491,-0.26355 v -0.79478 C 8.144264,295.2859 8.0262041,295.16785 7.8804882,295.16755 H 5.4976881 v -3.43907 c 0,-0.15835 0.125325,-0.26561 0.265617,-0.26561 z m 4.7547479,0.26458 c 0.0053,2.6e-4 0.01068,5.3e-4 0.01602,5.3e-4 h 5.29e-4 c 0.217708,0.005 0.387058,0.17675 0.387058,0.39585 0,0.22232 -0.174048,0.39842 -0.396359,0.39842 -0.222312,0 -0.396358,-0.1761 -0.396358,-0.39842 0,-0.21984 0.170355,-0.39255 0.389124,-0.39636 z m -4.4906819,0.26459 c -0.360787,-0.008 -0.360787,0.53726 0,0.52916 h 0.265617 c 0.3607871,0.008 0.3607871,-0.53726 0,-0.52916 z m 1.0583342,0 c -0.3607872,-0.008 -0.3607872,0.53726 0,0.52916 h 1.0588498 c 0.3607861,0.008 0.3607861,-0.53726 0,-0.52916 z m -1.0841722,1.05833 c -0.353122,0.0172 -0.327282,0.54691 0.02584,0.52968 h 0.265617 c 0.3531211,0 0.3531211,-0.52968 0,-0.52968 h -0.265617 c -0.0086,-5.3e-4 -0.01723,-5.3e-4 -0.02584,0 z m 1.05885,0 c -0.352997,0.017 -0.3276769,0.54668 0.02532,0.52968 h 1.0588501 c 0.3531219,0 0.3531219,-0.52968 0,-0.52968 h -1.05885 c -0.0084,-5.3e-4 -0.01689,-5.3e-4 -0.02532,0 z m -1.05885,1.05885 c -0.345267,0.024 -0.320121,0.53895 0.02584,0.52917 h 0.265617 c 0.360787,0.008 0.360787,-0.53727 0,-0.52917 h -0.265617 c -0.0086,-5.3e-4 -0.01723,-5.3e-4 -0.02584,0 z m 1.05885,0 c -0.344484,0.0243 -0.319912,0.53784 0.02532,0.52917 h 1.0588501 c 0.3607869,0.008 0.3607869,-0.53727 0,-0.52917 h -1.05885 c -0.0084,-5.3e-4 -0.01689,-5.3e-4 -0.02532,0 z m -2.091862,1.58802 h 2.6463501 v 0.52917 c 0,0.13235 0.04293,0.26354 0.0929,0.26354 H 5.2341401 c -0.151156,0 -0.265617,-0.1124 -0.265617,-0.26354 z"
         style="color:#000000;font-style:normal;font-variant:normal;font-weight:normal;font-stretch:normal;font-size:medium;line-height:normal;font-family:sans-serif;font-variant-ligatures:normal;font-variant-position:normal;font-variant-caps:normal;font-variant-numeric:normal;font-variant-alternates:normal;font-feature-settings:normal;text-indent:0;text-align:start;text-decoration:none;text-decoration-line:none;text-decoration-style:solid;text-decoration-color:#000000;letter-spacing:normal;word-spacing:normal;text-transform:none;writing-mode:lr-tb;direction:ltr;text-orientation:mixed;dominant-baseline:auto;baseline-shift:baseline;text-anchor:start;white-space:normal;shape-padding:0;clip-rule:nonzero;display:inline;overflow:visible;visibility:visible;opacity:1;isolation:auto;mix-blend-mode:normal;color-interpolation:sRGB;color-interpolation-filters:linearRGB;solid-color:#000000;solid-opacity:1;vector-effect:none;fill:#000000;fill-opacity:1;fill-rule:nonzero;stroke:none;stroke-width:0.42965251;stroke-linecap:round;stroke-linejoin:round;stroke-miterlimit:1.5;stroke-dasharray:none;stroke-dashoffset:0;stroke-opacity:1;paint-order:markers fill stroke;color-rendering:auto;image-rendering:auto;shape-rendering:auto;text-rendering:auto;enable-background:accumulate" />
    </g>
  </g>
</svg>
